<svg width="459" height="72" viewBox="0 0 459 72" fill="none" xmlns="http://www.w3.org/2000/svg">
<path d="M133.741 49.0061C136.549 49.0061 138.827 48.0776 140.594 46.2296C142.406 44.3365 143.312 41.9117 143.312 38.982C143.312 36.0523 142.406 33.6544 140.594 31.7974C138.827 29.9044 136.549 28.9489 133.741 28.9489C130.934 28.9489 128.7 29.8773 126.888 31.7253C125.076 33.5823 124.17 35.9711 124.17 38.9098C124.17 41.8486 125.076 44.2644 126.888 46.1575C128.7 48.0595 130.978 49.0061 133.741 49.0061ZM131.911 56.5962C128.745 56.5962 125.919 55.83 123.435 54.2885C120.95 52.7561 118.977 50.6557 117.533 47.9874C116.088 45.3191 115.362 42.2903 115.362 38.9098C115.362 35.5294 116.088 32.5186 117.533 29.8954C118.977 27.2271 120.95 25.1538 123.435 23.6574C125.919 22.1249 128.745 21.3496 131.911 21.3496C134.441 21.3496 136.656 21.8274 138.558 22.7739C140.46 23.7205 141.993 25.0546 143.168 26.7673V6.98063H151.851V55.7759H144.119L143.168 50.9622C142.083 52.4496 140.639 53.7657 138.827 54.8925C137.06 56.0193 134.755 56.5872 131.911 56.5872" fill="white"/>
<path d="M157.986 55.7882V22.1732H165.718L166.534 28.4743C167.754 26.3019 169.405 24.5891 171.486 23.3271C173.612 22.02 176.096 21.3619 178.949 21.3619V30.5116H176.509C174.607 30.5116 172.912 30.8091 171.423 31.395C169.934 31.981 168.759 32.9996 167.898 34.4419C167.082 35.8842 166.678 37.8945 166.678 40.4726V55.7882H157.995H157.986Z" fill="white"/>
<path d="M197.992 28.4112C195.866 28.4112 193.991 29.0242 192.358 30.2412C190.726 31.4131 189.694 33.225 189.237 35.6679H205.993C205.858 33.4503 205.042 31.6925 203.553 30.3854C202.064 29.0783 200.207 28.4203 197.992 28.4203M197.92 56.6085C194.529 56.6085 191.524 55.8873 188.896 54.436C186.277 52.9937 184.214 50.9565 182.725 48.3332C181.236 45.71 180.491 42.6902 180.491 39.2557C180.491 35.8212 181.218 32.6841 182.662 29.9708C184.151 27.2574 186.187 25.157 188.77 23.6696C191.39 22.1372 194.466 21.3619 198 21.3619C201.301 21.3619 204.217 22.0831 206.755 23.5344C209.285 24.9768 211.258 26.9689 212.657 29.493C214.101 31.981 214.828 34.7574 214.828 37.8314C214.828 38.3272 214.801 38.85 214.756 39.3909C214.756 39.9317 214.738 40.4996 214.693 41.0856H189.12C189.3 43.7088 190.206 45.7641 191.838 47.2515C193.515 48.7389 195.525 49.4871 197.875 49.4871C199.642 49.4871 201.113 49.0995 202.288 48.3332C203.508 47.5219 204.414 46.4853 205.006 45.2142H213.823C213.186 47.3416 212.128 49.2797 210.639 51.0466C209.195 52.7593 207.383 54.1205 205.212 55.1121C203.086 56.1037 200.665 56.5995 197.956 56.5995" fill="white"/>
<path d="M232.965 49.8206C235.45 49.8206 237.378 49.0093 238.733 47.3777C240.132 45.7551 241.02 43.7449 241.379 41.347H233.988C231.683 41.347 230.032 41.7797 229.037 42.6361C228.041 43.4474 227.547 44.466 227.547 45.683C227.547 46.9901 228.05 48.0087 229.037 48.7299C230.032 49.451 231.342 49.8116 232.974 49.8116M231.01 56.5905C228.113 56.5905 225.745 56.1397 223.888 55.2383C222.031 54.2918 220.659 53.0478 219.753 51.5153C218.847 49.9829 218.398 48.2881 218.398 46.4311C218.398 43.3121 219.618 40.7791 222.058 38.841C224.498 36.8939 228.166 35.9293 233.046 35.9293H241.594V35.118C241.594 32.8103 240.939 31.1246 239.63 30.0338C238.32 28.9521 236.688 28.4112 234.75 28.4112C232.983 28.4112 231.449 28.8439 230.14 29.7003C228.83 30.5116 228.014 31.7286 227.7 33.3602H219.223C219.448 30.9172 220.264 28.7988 221.663 26.9869C223.107 25.175 224.964 23.8049 227.225 22.8493C229.485 21.8577 232.014 21.3619 234.822 21.3619C239.612 21.3619 243.388 22.5609 246.151 24.9497C248.905 27.3476 250.286 30.728 250.286 35.118V55.7882H242.895L242.079 50.3705C241.083 52.1734 239.684 53.6698 237.872 54.8417C236.105 56.0135 233.826 56.5995 231.019 56.5995" fill="white"/>
<path d="M255.838 55.7858V22.1709H263.498L264.243 26.7142C265.328 25.0916 266.754 23.8026 268.521 22.856C270.333 21.8644 272.405 21.3686 274.764 21.3686C279.967 21.3686 283.653 23.3789 285.824 27.3993C287.044 25.5513 288.677 24.082 290.713 22.9912C292.794 21.9095 295.054 21.3686 297.494 21.3686C301.88 21.3686 305.253 22.6757 307.603 25.2989C309.953 27.9221 311.128 31.7623 311.128 36.8194V55.7949H302.445V37.6308C302.445 34.7371 301.88 32.5285 300.75 30.987C299.665 29.4456 297.969 28.6793 295.664 28.6793C293.359 28.6793 291.412 29.5358 289.968 31.2575C288.569 32.9793 287.869 35.3681 287.869 38.442V55.7858H279.186V37.6217C279.186 34.7281 278.621 32.5196 277.491 30.9781C276.361 29.4366 274.621 28.6704 272.271 28.6704C269.921 28.6704 268.091 29.5267 266.638 31.2485C265.238 32.9703 264.539 35.3591 264.539 38.433V55.7768H255.856L255.838 55.7858Z" fill="white"/>
<path d="M329.284 70.697V63.3141H331.93C333.419 63.3141 334.487 63.0166 335.114 62.4307C335.751 61.8447 336.065 60.8532 336.065 59.4469V22.1721H344.748V59.4469C344.748 63.5124 343.708 66.4061 341.627 68.1188C339.59 69.8316 336.81 70.697 333.285 70.697H329.284ZM340.478 16.9527C338.891 16.9527 337.581 16.4749 336.541 15.5284C335.545 14.5819 335.052 13.383 335.052 11.9407C335.052 10.4984 335.545 9.31744 336.541 8.416C337.581 7.46948 338.891 6.9917 340.478 6.9917C342.066 6.9917 343.349 7.46948 344.344 8.416C345.385 9.31744 345.905 10.4894 345.905 11.9407C345.905 13.392 345.385 14.5819 344.344 15.5284C343.349 16.4749 342.057 16.9527 340.478 16.9527Z" fill="white"/>
<path d="M367.245 49.0814C369.505 49.0814 371.469 48.2431 373.147 46.5754C374.815 44.8536 375.658 42.3296 375.658 38.9852C375.658 35.6409 374.824 33.1348 373.147 31.4672C371.469 29.7544 369.532 28.889 367.316 28.889C365.101 28.889 363.02 29.7454 361.342 31.4672C359.719 33.1348 358.902 35.6499 358.902 38.9852C358.902 42.3206 359.719 44.8627 361.342 46.5754C363.02 48.2431 364.984 49.0814 367.245 49.0814M367.245 56.5995C363.988 56.5995 361.046 55.8513 358.427 54.3639C355.853 52.8765 353.79 50.8212 352.256 48.198C350.767 45.5297 350.013 42.4648 350.013 38.9852C350.013 35.5057 350.785 32.4587 352.319 29.8355C353.852 27.1673 355.916 25.0939 358.49 23.5975C361.109 22.1102 364.051 21.3619 367.307 21.3619C370.563 21.3619 373.416 22.1102 375.99 23.5975C378.609 25.0849 380.672 27.1673 382.161 29.8355C383.695 32.4587 384.467 35.5057 384.467 38.9852C384.467 42.4648 383.695 45.5387 382.161 48.198C380.672 50.8212 378.609 52.8765 375.99 54.3639C373.371 55.8513 370.447 56.5995 367.236 56.5995" fill="white"/>
<path d="M407.636 49.0082C410.399 49.0082 412.677 48.0797 414.489 46.2317C416.301 44.3838 417.207 41.9859 417.207 39.0472C417.207 36.1084 416.301 33.6926 414.489 31.7995C412.677 29.9065 410.399 28.951 407.636 28.951C404.874 28.951 402.523 29.8975 400.72 31.7995C398.953 33.6475 398.074 36.0454 398.074 38.9841C398.074 41.9228 398.953 44.3387 400.72 46.2317C402.532 48.0797 404.838 49.0082 407.636 49.0082ZM409.466 56.5984C406.937 56.5984 404.721 56.1206 402.819 55.1741C400.918 54.2275 399.384 52.8934 398.209 51.1807L397.258 55.787H389.526V6.9917H398.209V26.9858C399.294 25.4984 400.72 24.1823 402.479 23.0555C404.29 21.9287 406.614 21.3608 409.466 21.3608C412.632 21.3608 415.458 22.127 417.943 23.6685C420.427 25.2009 422.401 27.3104 423.845 29.9696C425.289 32.6379 426.016 35.6667 426.016 39.0472C426.016 42.4276 425.289 45.4655 423.845 48.1247C422.401 50.7479 420.427 52.8213 417.943 54.3628C415.458 55.8502 412.632 56.5984 409.466 56.5984Z" fill="white"/>
<path d="M444.968 56.5984C441.981 56.5984 439.362 56.1206 437.102 55.1741C434.841 54.1825 433.029 52.8213 431.675 51.1085C430.32 49.3868 429.504 47.4036 429.235 45.141H437.99C438.259 46.448 438.985 47.5839 440.161 48.5304C441.38 49.4318 442.941 49.8826 444.843 49.8826C446.744 49.8826 448.117 49.495 448.978 48.7287C449.884 47.9625 450.332 47.0791 450.332 46.0875C450.332 44.6451 449.695 43.6716 448.431 43.1758C447.166 42.6349 445.399 42.1121 443.138 41.6163C441.694 41.3008 440.223 40.9132 438.725 40.4624C437.236 40.0117 435.855 39.4438 434.59 38.7677C433.37 38.0466 432.375 37.1452 431.603 36.0544C430.832 34.9276 430.446 33.5484 430.446 31.9167C430.446 28.933 431.621 26.4269 433.971 24.3986C436.366 22.3614 439.712 21.3518 444.009 21.3518C447.991 21.3518 451.158 22.2803 453.508 24.1282C455.903 25.9762 457.329 28.5363 457.786 31.7815H449.579C449.077 29.2935 447.202 28.0585 443.946 28.0585C442.313 28.0585 441.049 28.3741 440.152 29.0051C439.29 29.6361 438.86 30.4294 438.86 31.3759C438.86 32.3224 439.515 33.1607 440.824 33.7466C442.134 34.3326 443.874 34.8735 446.045 35.3693C448.395 35.9102 450.548 36.5231 452.485 37.1992C454.476 37.8302 456.055 38.8038 457.23 40.1109C458.405 41.3729 458.997 43.2028 458.997 45.6007C459.042 47.683 458.504 49.558 457.374 51.2257C456.243 52.8934 454.611 54.2095 452.485 55.156C450.359 56.1025 447.848 56.5803 444.959 56.5803" fill="white"/>
<path d="M97.1886 35.9998C97.1886 55.3539 81.5273 71.0571 62.1792 71.1563H12.1273C5.65108 71.1563 0.394775 65.9099 0.394775 59.4375C0.394775 52.9651 5.65108 47.7187 12.1273 47.7187H16.0382C20.3617 47.7187 23.8599 44.2211 23.8599 39.9031V35.9998C23.8599 29.5275 29.1163 24.281 35.5925 24.281H40.2838C44.6072 24.281 48.1055 20.7834 48.1055 16.4655V12.5622C48.1055 6.08984 53.3618 0.843449 59.8381 0.843449H62.1882C81.5452 0.942608 97.1976 16.6458 97.1976 35.9998" fill="#00D25F"/>
<path d="M323.105 56.254C321.517 56.254 320.208 55.7582 319.167 54.7666C318.172 53.775 317.678 52.5761 317.678 51.1788C317.678 49.7816 318.172 48.5106 319.167 47.519C320.208 46.5274 321.517 46.0316 323.105 46.0316C324.693 46.0316 325.975 46.5274 326.971 47.519C328.012 48.5106 328.532 49.7365 328.532 51.1788C328.532 52.6212 328.012 53.775 326.971 54.7666C325.975 55.7582 324.684 56.254 323.105 56.254Z" fill="#00D25F"/>
</svg>
