<svg width="752" height="106" viewBox="0 0 752 106" fill="none" xmlns="http://www.w3.org/2000/svg">
<path d="M66.4 29.5H77V51.6H66.5V29.5H66.4ZM84.4 22.5H59C54.9 22.5 51.6 25.8 51.6 29.9V76.9C51.6 81 54.9 84.3 59 84.3H84.4C88.5 84.3 91.8 81 91.8 76.9V66.5H77V77.3H66.5V58.4H91.9V51.4V29.9C91.8 25.8 88.5 22.5 84.4 22.5Z" fill="white"/>
<path d="M114.1 29.5H124.6V51.6H114.1V29.5ZM132 22.5H106.6C102.5 22.5 99.2 25.8 99.2 29.9V76.9C99.2 81 102.5 84.3 106.6 84.3H132C136.1 84.3 139.4 81 139.4 76.9V66.5H124.5V77.3H114V58.4H139.4V51.4V29.9C139.4 25.8 136.1 22.5 132 22.5Z" fill="white"/>
<path d="M17.3 7.8H29.7V51.6H17.3V7.8ZM37.8 0.899994H0.799988V84.4H17.2V58.6H37.8C42.3 58.6 46 54.9 46 50.4V9.09999C46 4.49999 42.4 0.899994 37.8 0.899994Z" fill="white"/>
<path d="M180 51.6H176.9L187.4 22.5H172.5L162 51.6V0.899994H147.1V84.4H162V58.6H172.5V84.4H187.4V59C187.4 54.9 184.1 51.6 180 51.6Z" fill="white"/>
<path d="M472 29.5H482.5V51.6H472V29.5ZM489.9 22.5H464.5C460.4 22.5 457.1 25.8 457.1 29.9V76.9C457.1 81 460.4 84.3 464.5 84.3H489.9C494 84.3 497.3 81 497.3 76.9V66.5H482.4V77.3H472V58.4H497.4V29.9C497.4 25.8 494 22.5 489.9 22.5Z" fill="white"/>
<path d="M328.5 29.5H339V77.4H328.5V29.5ZM346.4 22.5H321C316.9 22.5 313.6 25.8 313.6 29.9V76.9C313.6 81 316.9 84.3 321 84.3H346.4C350.5 84.3 353.8 81 353.8 76.9V29.9C353.8 25.8 350.5 22.5 346.4 22.5Z" fill="white"/>
<path d="M305.9 0.899994H291.1V84.4H305.9V0.899994Z" fill="white"/>
<path d="M376.4 29.5H386.9V77.4H376.4V29.5ZM394.4 22.5H361.6V106H376.5V84.3H394.4C398.5 84.3 401.8 81 401.8 76.9V29.9C401.8 25.8 398.5 22.5 394.4 22.5Z" fill="white"/>
<path d="M424.1 29.5H434.6V77.4H424.1V29.5ZM442 22.5H409.2V106H424.1V84.3H442C446.1 84.3 449.4 81 449.4 76.9V29.9C449.4 25.8 446.1 22.5 442 22.5Z" fill="white"/>
<path d="M568.2 29.5H578.7V77.4H568.2V29.5ZM586.1 22.5H568.2V0.899994H553.3V84.4H586.1C590.2 84.4 593.5 81.1 593.5 77V30C593.6 25.8 590.2 22.5 586.1 22.5Z" fill="white"/>
<path d="M537.9 22.5H505.1V84.4H520V29.5H530.5V84.4H545.4V29.9C545.3 25.8 542 22.5 537.9 22.5Z" fill="white"/>
<path d="M641.5 22.5H626.7V77.4H616.2V22.5H601.4V77C601.4 81.1 604.7 84.4 608.8 84.4H641.6V22.5H641.5Z" fill="white"/>
<path d="M674.6 22.5H656.7C652.6 22.5 649.3 25.8 649.3 29.9V84.3H664.2V29.5H674.7V22.5H674.6Z" fill="white"/>
<path d="M703.7 77.4H693.2V29.5H703.7V77.4ZM718.5 22.5H685.7C681.6 22.5 678.3 25.8 678.3 29.9V76.9C678.3 81 681.6 84.3 685.7 84.3H703.6V99H693.1V91.1H678.3V98.5C678.3 102.6 681.6 105.9 685.7 105.9H711.1C715.2 105.9 718.5 102.6 718.5 98.5V22.5Z" fill="white"/>
<path d="M266.9 29.5H283.3V9.09999C283.3 4.59999 279.6 0.899994 275.1 0.899994H246.3C241.8 0.899994 238.1 4.59999 238.1 9.09999V76.2C238.1 80.7 241.8 84.4 246.3 84.4H275.1C279.6 84.4 283.3 80.7 283.3 76.2V51.6H266.9V77.4H254.5V7.8H266.9V29.5Z" fill="white"/>
<path d="M238.2 76.2V57.6L207.1 17.3C204.7 14.2 205.3 9.7 208.4 7.3C211.5 4.9 216 5.49999 218.4 8.59999L230.2 23.9V4.19999C223.2 -0.400007 213.8 -0.400005 206.8 5.09999C198 11.9 196.4 24.6 203.2 33.4C203.2 33.4 204.1 34.5 205.5 36.4C202.6 38.3 199.8 40.4 197.3 42.4C186.7 50.6 184.1 64.9 192.3 75.5C200.5 86.1 214.9 87.1 225.5 78.9C228 76.9 230.8 74.8 233.3 72.4C238.6 79.3 240 81.1 240 81.1C238.8 79.8 238.2 78 238.2 76.2ZM203.9 66.4C197.2 57.7 198.6 45.3 206.9 38.3C212.6 45.7 223.5 59.9 231.7 70.6C222.9 76.9 210.6 75.1 203.9 66.4Z" fill="white"/>
<path d="M744.4 0.899994L740.8 8.19999L737 0.899994L733.3 2.89999L738.2 9.89999L729.6 9.19999V13.1L738.2 12.4L733.3 19.4L737 21.5L740.8 14.2L744.4 21.5L748.1 19.4L743.3 12.4L751.9 13.1V9.19999L743.3 9.89999L748.1 2.89999L744.4 0.899994Z" fill="white"/>
</svg>
