<svg id='Computer_Mouse_24' width='24' height='24' stroke="white" viewBox='0 0 24 24' xmlns='http://www.w3.org/2000/svg' xmlns:xlink='http://www.w3.org/1999/xlink'><rect width='24' height='24' stroke='none' fill='#000000' opacity='0'/>

<g transform="matrix(0.43 0 0 0.43 12 12)" >
<path style="stroke: none; stroke-width: 1; stroke-dasharray: none; stroke-linecap: butt; stroke-dashoffset: 0; stroke-linejoin: miter; stroke-miterlimit: 4; fill: rgb(255,255,255); fill-rule: nonzero; opacity: 1;" transform=" translate(-25, -24.99)" d="M 24.984375 1.984375 C 24.914063 1.988281 24.847656 1.996094 24.78125 2.011719 C 14.953125 2.132813 7 10.144531 7 20 L 7 24.808594 C 6.980469 24.929688 6.980469 25.058594 7 25.179688 L 7 30 C 7 39.929688 15.074219 48 25 48 C 34.929688 48 43 39.929688 43 30 L 43 25.132813 C 43.015625 25.042969 43.015625 24.953125 43 24.863281 L 43 20 C 43 10.140625 35.042969 2.121094 25.207031 2.007813 C 25.136719 1.992188 25.058594 1.984375 24.984375 1.984375 Z M 24 4.050781 L 24 8.1875 C 22.839844 8.605469 22 9.707031 22 11 L 22 17 C 22 18.292969 22.839844 19.394531 24 19.8125 L 24 24 L 9 24 L 9 20 C 9 11.492188 15.621094 4.570313 24 4.050781 Z M 26 4.050781 C 34.378906 4.566406 41 11.488281 41 20 L 41 24 L 26 24 L 26 19.8125 C 27.15625 19.398438 28 18.292969 28 17 L 28 11 C 28 9.738281 27.125 8.804688 26 8.390625 Z M 24.941406 10.011719 C 24.980469 10.015625 25.019531 10.015625 25.058594 10.011719 C 25.59375 10.042969 26 10.457031 26 11 L 26 17 C 26 17.542969 25.59375 17.957031 25.058594 17.988281 C 25.03125 17.988281 25.007813 17.984375 24.984375 17.984375 C 24.96875 17.988281 24.957031 17.988281 24.941406 17.988281 C 24.40625 17.957031 24 17.542969 24 17 L 24 11 C 24 10.457031 24.40625 10.042969 24.941406 10.011719 Z M 9 26 L 24.832031 26 C 24.9375 26.019531 25.050781 26.019531 25.15625 26 L 41 26 L 41 30 C 41 38.847656 33.851563 46 25 46 C 16.152344 46 9 38.847656 9 30 Z" stroke-linecap="round" />
</g>
</svg>