<svg width="334" height="490" viewBox="0 0 334 490" fill="none" xmlns="http://www.w3.org/2000/svg">
<g clip-path="url(#clip0_4_133)">
<g opacity="0.8">
<path opacity="0.65" d="M290.151 326.821C280.139 337.819 268.208 347.455 254.603 355.314L139.904 421.599L87.172 451.999L87.042 452.051L86.887 452.141C86.77 452.193 86.653 452.219 86.537 452.258C86.459 452.284 86.381 452.31 86.303 452.336C86.057 452.401 85.81 452.427 85.564 452.44H85.551C85.434 452.44 85.304 452.401 85.188 452.388C85.032 452.375 84.876 452.362 84.721 452.323C84.617 452.297 84.526 452.245 84.436 452.206C84.267 452.141 84.098 452.089 83.943 451.999H83.93L57.875 436.929L31.522 452.128C28.863 453.659 28.863 457.498 31.522 459.041L81.945 488.144C83.178 488.857 84.552 489.22 85.94 489.22C87.328 489.22 88.689 488.857 89.934 488.144L323.793 353.148C326.452 351.618 326.452 347.779 323.793 346.236L290.151 326.821Z" fill="#BABDC7"/>
<path d="M307.655 241.588V269.204C307.655 312.648 284.247 352.105 245.062 374.729L144.189 433.011L97.815 459.742C97.815 459.742 97.73 459.776 97.696 459.793C97.644 459.81 97.61 459.861 97.559 459.878C97.457 459.929 97.355 459.946 97.27 459.98C97.201 459.998 97.133 460.032 97.065 460.049C96.844 460.1 96.639 460.134 96.418 460.134C96.333 460.134 96.23 460.1 96.145 460.1C95.992 460.1 95.839 460.083 95.685 460.032C95.617 460.015 95.532 459.963 95.464 459.946C95.31 459.895 95.14 459.844 94.987 459.742L48.766 433.011C47.71 432.398 47.148 431.172 47.386 429.962L70.403 315.254L51.629 326.09C51.407 326.226 51.169 326.311 50.93 326.379C50.691 326.447 50.436 326.481 50.197 326.481C50.01 326.481 49.823 326.447 49.652 326.413C49.601 326.413 49.533 326.413 49.482 326.396C49.397 326.379 49.312 326.328 49.226 326.294C49.073 326.243 48.937 326.192 48.8 326.124L2.42673 299.376C1.54083 298.865 0.995728 297.911 0.995728 296.889V243.428C0.995728 242.406 1.54083 241.452 2.42673 240.941L96.145 186.832L104.629 144.581L76.059 128.056L51.594 142.179C51.492 142.23 51.39 142.264 51.271 142.315C51.151 142.367 51.032 142.435 50.896 142.469C50.743 142.52 50.572 142.52 50.402 142.537C50.317 142.537 50.232 142.571 50.163 142.571C50.044 142.571 49.942 142.537 49.823 142.52C49.686 142.52 49.567 142.52 49.431 142.469C49.192 142.401 48.954 142.315 48.732 142.179L2.44383 115.824C1.54083 115.312 0.995728 114.358 0.995728 113.336V29.6011C0.995728 29.6011 0.995728 29.55 0.995728 29.533C0.995728 29.3115 1.02973 29.09 1.08083 28.8686C1.08083 28.8686 1.08083 28.8515 1.08083 28.8345C1.13193 28.6301 1.21713 28.4256 1.31933 28.2382C1.35343 28.1871 1.38753 28.119 1.42163 28.0678C1.50683 27.9316 1.60903 27.7953 1.72823 27.676C1.77933 27.6249 1.81343 27.5738 1.86453 27.5227C2.01783 27.3693 2.18823 27.2331 2.37563 27.1308C2.37563 27.1308 2.39273 27.1308 2.40973 27.1138L48.732 0.383317C49.618 -0.127773 50.709 -0.127773 51.594 0.383317L213.306 93.7952C213.306 93.7952 213.357 93.8292 213.391 93.8463C213.442 93.8803 213.511 93.9144 213.562 93.9485C213.613 93.9826 213.664 94.034 213.698 94.068C213.749 94.102 213.8 94.153 213.851 94.204C213.885 94.238 213.936 94.289 213.971 94.323C214.005 94.374 214.056 94.408 214.09 94.46C214.141 94.511 214.175 94.562 214.226 94.63C214.26 94.681 214.294 94.732 214.328 94.783C214.328 94.8 214.362 94.817 214.379 94.851C214.379 94.886 214.396 94.92 214.414 94.937C214.448 94.988 214.465 95.056 214.499 95.107C214.533 95.158 214.55 95.226 214.567 95.294C214.584 95.345 214.601 95.414 214.618 95.465C214.618 95.516 214.652 95.567 214.652 95.618C214.652 95.686 214.686 95.754 214.686 95.823C214.686 95.891 214.703 95.942 214.703 96.01C214.703 96.061 214.703 96.112 214.703 96.18C214.703 96.248 214.703 96.317 214.703 96.385C214.703 96.436 214.703 96.504 214.703 96.555C214.703 96.623 214.703 96.674 214.669 96.743C214.669 96.777 214.669 96.811 214.669 96.862L203.885 149.028C209.831 148.5 217.838 150.203 222.676 152.81C222.676 152.81 222.693 152.81 222.71 152.827C222.71 152.827 222.744 152.827 222.744 152.844L264.297 176.832C264.399 176.883 264.484 176.968 264.569 177.019C267.483 178.229 270.328 179.609 273.071 181.193C295.031 193.868 307.638 215.88 307.638 241.571L307.655 241.588ZM179.25 248.403L167.648 308.763L194.191 293.26C194.191 293.26 212.454 277.757 212.454 261.555C212.454 245.353 211.756 230.599 211.756 230.599L179.267 248.403H179.25Z" fill="white"/>
<g opacity="0.15">
<g style="mix-blend-mode:multiply">
<path d="M6.73755 35.1383V112.246L47.302 135.348V110.338C47.302 109.316 47.847 108.362 48.733 107.851C49.619 107.34 50.709 107.34 51.595 107.851L77.252 122.69C77.457 122.775 77.661 122.894 77.831 123.03L109.281 141.225C110.354 141.839 110.9 143.065 110.661 144.275L53.384 429.656L94.374 453.371L162.35 125.024L6.73755 35.1383Z" fill="#132140"/>
</g>
<path d="M6.73816 295.816L47.2851 319.225V272.391L6.73816 248.983V295.816Z" fill="#E1E3E6"/>
<path d="M170.409 311.558L159.42 364.729L218.35 330.69C241.707 317.214 255.643 294.248 255.643 269.29V258.42C255.643 248.42 250.157 239.271 240.975 233.973C232.678 229.168 223.154 228.64 215.079 232.405V260.277C215.079 276.718 206.458 290.739 190.802 299.785L170.426 311.575L170.409 311.558Z" fill="#132140"/>
</g>
<path d="M270.226 186.764C248.964 174.481 222.081 174.753 200.069 187.445L195.555 190.103C195.555 190.103 195.521 190.103 195.521 190.12L184.532 243.309L210.138 228.487C220.411 222.558 233.018 222.745 243.836 228.981C254.825 235.318 261.384 246.324 261.384 258.403V269.272C261.384 296.309 246.375 321.132 221.229 335.647L156.762 372.889C156.575 372.991 156.37 373.077 156.149 373.145C156.098 373.145 156.047 373.179 155.996 373.179C155.791 373.23 155.57 373.264 155.348 373.264C155.161 373.264 154.956 373.247 154.769 373.213C154.735 373.213 154.701 373.196 154.684 373.179C154.616 373.179 154.564 373.145 154.513 373.128C154.343 373.077 154.19 373.008 154.036 372.94C153.985 372.906 153.917 372.872 153.866 372.838C153.696 372.736 153.559 372.634 153.423 372.497C153.389 372.463 153.355 372.446 153.338 372.429C153.167 372.259 153.031 372.088 152.912 371.884C152.912 371.867 152.878 371.85 152.878 371.833C152.844 371.782 152.827 371.731 152.81 371.679C152.759 371.577 152.725 371.492 152.673 371.39C152.639 371.305 152.622 371.22 152.605 371.151C152.571 371.049 152.554 370.964 152.537 370.862C152.537 370.777 152.52 370.691 152.503 370.589C152.503 370.487 152.503 370.402 152.503 370.3C152.503 370.197 152.503 370.112 152.537 370.01C152.537 369.942 152.537 369.891 152.554 369.823L164.991 309.649C164.991 309.325 165.076 309.019 165.178 308.729L207.821 102.535L168.177 125.432L100.541 452.178L141.378 428.633L242.252 370.351C279.647 348.765 301.982 311.165 301.982 269.783V242.167C301.982 218.588 290.432 198.383 270.294 186.764H270.226Z" fill="white"/>
<path d="M94.63 194.924L9.60004 244.007L50.164 267.415L84.016 247.874L94.63 194.924Z" fill="white"/>
<path d="M82.517 255.37L53.026 272.389V319.223L71.869 308.337L82.517 255.37Z" fill="white"/>
<path d="M53.026 135.313L70.335 125.329L53.026 115.312V135.313Z" fill="white"/>
<path d="M197.071 182.555L197.173 182.487C211.757 174.071 228.299 170.732 244.245 172.453L219.951 158.431C214.959 155.757 206.424 154.666 202.659 155.586L197.088 182.555H197.071Z" fill="white"/>
<path d="M206.134 96.845L50.164 6.75479L9.60004 30.1802L165.57 120.27L206.134 96.845Z" fill="white"/>
<path d="M307.655 241.588C307.655 215.897 295.048 193.902 273.088 181.21C270.328 179.626 267.483 178.229 264.586 177.036C264.501 176.968 264.416 176.9 264.314 176.849L222.761 152.861C222.761 152.861 222.727 152.861 222.727 152.844C222.727 152.844 222.71 152.844 222.693 152.827C217.855 150.22 209.848 148.517 203.885 149.045L214.669 96.879C214.669 96.879 214.669 96.811 214.669 96.76C214.669 96.691 214.686 96.64 214.703 96.572C214.703 96.521 214.703 96.453 214.703 96.402C214.703 96.334 214.703 96.265 214.703 96.197C214.703 96.146 214.703 96.078 214.703 96.027C214.703 95.959 214.703 95.908 214.686 95.84C214.686 95.771 214.669 95.703 214.652 95.635C214.652 95.584 214.618 95.533 214.618 95.482C214.601 95.431 214.584 95.363 214.567 95.311C214.55 95.243 214.516 95.192 214.499 95.124C214.465 95.073 214.448 95.005 214.414 94.954C214.414 94.92 214.396 94.886 214.379 94.868C214.379 94.851 214.345 94.817 214.328 94.8C214.294 94.749 214.26 94.698 214.226 94.647C214.192 94.596 214.141 94.528 214.09 94.477C214.056 94.426 214.022 94.374 213.971 94.34C213.936 94.306 213.885 94.255 213.851 94.221C213.8 94.17 213.749 94.136 213.698 94.085C213.647 94.051 213.613 93.9996 213.562 93.9655C213.511 93.9315 213.459 93.8974 213.391 93.8633C213.357 93.8463 213.34 93.8292 213.306 93.8122L51.594 0.383317C50.709 -0.127773 49.618 -0.127773 48.732 0.383317L2.44383 27.1138C2.44383 27.1138 2.42673 27.1138 2.40973 27.1308C2.22233 27.2501 2.05193 27.3864 1.89863 27.5227C1.84753 27.5738 1.81343 27.6249 1.76233 27.676C1.64303 27.7953 1.55793 27.9316 1.45563 28.0678C1.42163 28.119 1.38753 28.1701 1.35343 28.2382C1.25123 28.4256 1.16603 28.6301 1.11493 28.8345C1.11493 28.8345 1.11493 28.8515 1.11493 28.8686C1.06383 29.09 1.02973 29.3115 1.02973 29.533C1.02973 29.5671 1.02973 29.5841 1.02973 29.6011V113.336C1.02973 114.375 1.57493 115.312 2.47783 115.824L48.766 142.196C48.988 142.315 49.209 142.418 49.465 142.486C49.584 142.52 49.72 142.52 49.857 142.537C49.976 142.537 50.078 142.588 50.197 142.588C50.283 142.588 50.368 142.571 50.436 142.554C50.606 142.554 50.76 142.537 50.93 142.486C51.066 142.452 51.186 142.384 51.305 142.333C51.407 142.281 51.526 142.264 51.629 142.196L76.093 128.073L104.664 144.598L96.179 186.849L2.42673 240.941C1.54083 241.452 0.995728 242.406 0.995728 243.428V296.889C0.995728 297.911 1.54083 298.865 2.42673 299.376L48.715 326.107C48.852 326.192 49.005 326.226 49.141 326.277C49.226 326.311 49.312 326.362 49.397 326.379C49.448 326.379 49.516 326.379 49.567 326.396C49.754 326.43 49.925 326.464 50.112 326.464C50.351 326.464 50.606 326.43 50.845 326.362C51.083 326.294 51.322 326.209 51.543 326.073L70.318 315.237L47.301 429.945C47.063 431.154 47.608 432.381 48.681 432.994L94.902 459.725C95.055 459.81 95.208 459.861 95.379 459.929C95.447 459.963 95.515 459.997 95.6 460.015C95.753 460.049 95.907 460.066 96.06 460.083C96.145 460.083 96.247 460.117 96.333 460.117C96.554 460.117 96.776 460.083 96.98 460.032C97.048 460.032 97.116 459.98 97.184 459.963C97.287 459.929 97.389 459.912 97.474 459.861C97.525 459.844 97.559 459.81 97.61 459.776C97.644 459.759 97.696 459.742 97.73 459.725L144.103 432.994L244.977 374.712C284.179 352.087 307.57 312.631 307.57 269.187V241.571L307.655 241.588ZM219.95 157.853L244.245 171.874C228.315 170.153 211.756 173.493 197.172 181.909L197.07 181.977L202.641 155.008C206.406 154.088 214.925 155.178 219.933 157.853H219.95ZM50.163 6.1758L206.134 96.265L165.569 119.691L9.59903 29.6011L50.163 6.1758ZM53.026 134.734V114.733L70.335 124.751L53.026 134.734ZM84.015 247.295L50.163 266.836L9.59903 243.428L94.629 194.328L84.015 247.295ZM6.73703 295.236V248.403L47.301 271.811V318.645L6.73703 295.236ZM53.026 318.645V271.811L82.499 254.791L71.868 307.758L53.026 318.645ZM110.66 143.695C110.899 142.486 110.354 141.259 109.28 140.646L77.831 122.451C77.643 122.314 77.456 122.212 77.252 122.11L51.594 107.271C50.709 106.76 49.618 106.76 48.732 107.271C47.846 107.782 47.301 108.736 47.301 109.758V134.768L6.73703 111.667V34.5588L162.35 124.444L94.373 452.774L53.383 429.059L110.66 143.695ZM301.914 269.204C301.914 310.586 279.579 348.169 242.183 369.772L141.309 428.054L100.473 451.598L168.125 124.836L207.769 101.939L165.127 308.133C165.007 308.423 164.939 308.729 164.939 309.053L152.502 369.226C152.502 369.226 152.502 369.346 152.485 369.414C152.485 369.516 152.451 369.601 152.451 369.703C152.451 369.806 152.451 369.891 152.451 369.993C152.451 370.078 152.451 370.163 152.485 370.266C152.485 370.368 152.519 370.453 152.554 370.555C152.571 370.64 152.605 370.726 152.622 370.794C152.656 370.896 152.707 370.998 152.758 371.083C152.792 371.134 152.792 371.186 152.826 371.237C152.826 371.254 152.86 371.271 152.86 371.288C152.979 371.492 153.116 371.663 153.286 371.833C153.32 371.867 153.337 371.884 153.371 371.901C153.508 372.02 153.661 372.14 153.831 372.242C153.882 372.276 153.951 372.31 154.002 372.344C154.155 372.412 154.308 372.48 154.462 372.531C154.513 372.548 154.581 372.566 154.632 372.583C154.666 372.583 154.683 372.6 154.717 372.617C154.922 372.651 155.109 372.668 155.296 372.668C155.518 372.668 155.739 372.634 155.944 372.583C155.995 372.583 156.046 372.548 156.097 372.548C156.319 372.48 156.523 372.412 156.71 372.293L221.177 335.051C246.323 320.536 261.332 295.713 261.332 268.676V257.807C261.332 245.728 254.773 234.722 243.785 228.385C232.966 222.132 220.359 221.945 210.086 227.89L184.48 242.712L195.486 189.524C195.486 189.524 195.52 189.524 195.52 189.507L200.035 186.849C222.046 174.14 248.913 173.884 270.191 186.168C290.329 197.804 301.88 217.992 301.88 241.571V269.187L301.914 269.204ZM170.391 310.978L190.767 299.189C206.423 290.142 215.044 276.121 215.044 259.681V231.809C223.119 228.044 232.626 228.572 240.94 233.376C250.122 238.675 255.608 247.823 255.608 257.824V268.693C255.608 293.669 241.672 316.617 218.315 330.11L159.385 364.149L170.374 310.978H170.391ZM209.32 259.681C209.32 273.975 201.721 286.241 187.905 294.214L171.958 303.431L182.947 250.243L209.32 234.978V259.664V259.681Z" fill="#132140"/>
<path d="M322.499 316.057V308.878H326.137C326.429 308.878 326.747 308.963 327.09 309.131C327.434 309.293 327.726 309.546 327.966 309.89C328.212 310.227 328.335 310.655 328.335 311.174C328.335 311.699 328.209 312.147 327.956 312.516C327.703 312.879 327.395 313.155 327.032 313.343C326.675 313.531 326.338 313.625 326.02 313.625H323.394V312.458H325.534C325.748 312.458 325.978 312.351 326.225 312.137C326.478 311.923 326.604 311.602 326.604 311.174C326.604 310.733 326.478 310.435 326.225 310.279C325.978 310.123 325.761 310.046 325.573 310.046H324.075V316.057H322.499ZM326.838 312.672L328.627 316.057H326.896L325.145 312.672H326.838ZM325.223 320.337C324.146 320.337 323.138 320.136 322.198 319.733C321.258 319.331 320.431 318.774 319.717 318.06C319.004 317.347 318.447 316.52 318.044 315.58C317.642 314.64 317.441 313.632 317.441 312.555C317.441 311.479 317.642 310.47 318.044 309.53C318.447 308.59 319.004 307.763 319.717 307.05C320.431 306.336 321.258 305.779 322.198 305.377C323.138 304.975 324.146 304.774 325.223 304.774C326.299 304.774 327.308 304.975 328.248 305.377C329.188 305.779 330.015 306.336 330.728 307.05C331.442 307.763 331.999 308.59 332.401 309.53C332.803 310.47 333.004 311.479 333.004 312.555C333.004 313.632 332.803 314.64 332.401 315.58C331.999 316.52 331.442 317.347 330.728 318.06C330.015 318.774 329.188 319.331 328.248 319.733C327.308 320.136 326.299 320.337 325.223 320.337ZM325.223 318.469C326.312 318.469 327.304 318.203 328.199 317.671C329.094 317.14 329.807 316.426 330.339 315.531C330.871 314.637 331.137 313.644 331.137 312.555C331.137 311.466 330.871 310.474 330.339 309.579C329.807 308.684 329.094 307.971 328.199 307.439C327.304 306.907 326.312 306.641 325.223 306.641C324.133 306.641 323.141 306.907 322.246 307.439C321.352 307.971 320.638 308.684 320.107 309.579C319.575 310.474 319.309 311.466 319.309 312.555C319.309 313.644 319.575 314.637 320.107 315.531C320.638 316.426 321.352 317.14 322.246 317.671C323.141 318.203 324.133 318.469 325.223 318.469Z" fill="#1A1A1A"/>
</g>
</g>
<defs>
<clipPath id="clip0_4_133">
<rect width="334" height="490" fill="white"/>
</clipPath>
</defs>
</svg>
