<svg width="1259" height="282" viewBox="0 0 1259 282" fill="none" xmlns="http://www.w3.org/2000/svg">
<g clip-path="url(#clip0_4_46)">
<path d="M410.432 205.012C401.276 205.012 392.811 203.922 385.035 201.742C377.26 199.562 370.565 196.85 364.921 193.58C359.278 190.336 354.144 186.686 349.491 182.655L365.432 166.002C369.665 169.804 373.957 173.049 378.28 175.66C382.604 178.296 387.437 180.425 392.811 182.047C398.184 183.67 404.068 184.48 410.432 184.48C419.048 184.48 426.133 183.112 431.627 180.349C437.12 177.611 439.882 173.708 439.882 168.664C439.882 165.419 438.682 162.783 436.31 160.755C433.939 158.727 430.366 157.08 425.653 155.787C420.939 154.494 413.945 153.075 404.638 151.504C393.741 149.476 384.795 147.194 377.74 144.609C370.715 142.023 365.221 138.5 361.319 134.013C357.386 129.527 355.435 123.697 355.435 116.524C355.435 109.249 357.686 102.938 362.219 97.6145C366.723 92.2918 373.057 88.2359 381.223 85.4223C389.388 82.6344 398.785 81.215 409.412 81.215C416.857 81.215 423.792 81.9749 430.216 83.496C436.64 85.0165 442.494 87.0194 447.748 89.5542C453.001 92.0632 457.744 95.0797 461.977 98.5521L446.847 115.535C441.413 111.049 435.409 107.576 428.835 105.118C422.261 102.659 415.596 101.417 408.811 101.417C400.856 101.417 394.461 102.659 389.688 105.118C384.915 107.576 382.514 110.846 382.514 114.876C382.514 117.893 383.594 120.326 385.785 122.1C387.977 123.9 391.249 125.421 395.633 126.638C400.016 127.879 406.32 129.223 414.545 130.668C426.373 132.797 435.95 135.205 443.335 137.892C450.69 140.579 456.484 144.279 460.657 148.994C464.83 153.709 466.931 159.868 466.931 167.497C466.931 175.128 464.53 181.743 459.756 187.345C454.983 192.946 448.318 197.281 439.732 200.374C431.237 203.491 421.45 205.012 410.432 205.012Z" fill="white"/>
<path d="M499.834 105.498C495.451 105.498 491.728 104.179 488.666 101.544C485.604 98.907 484.073 95.7893 484.073 92.2151C484.073 88.5147 485.604 85.3462 488.666 82.7104C491.728 80.0738 495.451 78.7556 499.834 78.7556C504.216 78.7556 507.939 80.0738 510.972 82.7104C514.033 85.3462 515.564 88.5147 515.564 92.2151C515.564 95.8144 514.033 98.907 510.972 101.544C507.91 104.179 504.216 105.498 499.834 105.498ZM487.495 202.325V116.752H511.992V202.325H487.495Z" fill="white"/>
<path d="M536.674 202.325V116.752H561.374V126.84C564.293 122.81 568.164 119.667 572.935 117.436C577.706 115.205 583.079 114.065 589.054 114.065C596.888 114.065 603.465 115.358 608.777 117.943C614.096 120.529 617.998 124.28 620.521 129.198C623.577 124.483 627.753 120.782 633.065 118.095C638.377 115.408 644.627 114.065 651.768 114.065C662.513 114.065 670.775 116.6 676.567 121.644C682.328 126.688 685.239 133.988 685.239 143.494V202.325H660.745V147.194C660.745 142.15 659.274 138.322 656.363 135.686C653.452 133.051 649.131 131.732 643.422 131.732C639.429 131.732 635.916 132.543 632.86 134.165C629.796 135.788 627.449 138.17 625.772 141.314C624.118 144.456 623.28 148.259 623.28 152.745V202.325H598.572V147.194C598.572 142.15 597.101 138.322 594.19 135.686C591.279 133.051 587.072 131.732 581.638 131.732C577.53 131.732 573.956 132.543 570.893 134.165C567.829 135.788 565.489 138.145 563.813 141.238C562.159 144.33 561.32 148.056 561.32 152.416V202.35H536.674V202.325Z" fill="white"/>
<path d="M709.772 234.289V116.752H734.052V127.524C738.29 123.165 743.365 119.819 749.188 117.512C755.041 115.205 761.465 114.065 768.492 114.065C778.034 114.065 786.501 115.992 793.886 119.87C801.24 123.748 807.001 129.147 811.117 136.092C815.232 143.037 817.305 150.895 817.305 159.64C817.305 168.486 815.232 176.344 811.117 183.188C807.001 190.032 801.24 195.38 793.794 199.233C786.348 203.111 777.858 205.038 768.309 205.038C761.405 205.038 755.041 203.897 749.188 201.59C743.335 199.283 738.29 196.014 734.052 191.755V234.289H709.772ZM763.325 186.863C769.026 186.863 774.04 185.773 778.369 183.594C782.69 181.414 786.051 178.245 788.513 174.088C790.974 169.931 792.201 165.115 792.201 159.64C792.201 151.351 789.564 144.71 784.252 139.717C778.933 134.723 771.914 132.239 763.142 132.239C754.378 132.239 747.351 134.723 742.039 139.717C736.727 144.71 734.083 151.351 734.083 159.64C734.083 165.14 735.317 169.956 737.779 174.088C740.241 178.245 743.663 181.414 748.045 183.594C752.396 185.773 757.503 186.863 763.325 186.863Z" fill="white"/>
<path d="M837.806 202.325V80.4286H862.3V202.325H837.806Z" fill="white"/>
<path d="M899.674 105.498C895.292 105.498 891.565 104.179 888.54 101.544C885.476 98.907 883.944 95.7893 883.944 92.2151C883.944 88.5147 885.476 85.3462 888.54 82.7104C891.596 80.0738 895.322 78.7556 899.674 78.7556C904.056 78.7556 907.783 80.0738 910.839 82.7104C913.902 85.3462 915.434 88.5147 915.434 92.2151C915.434 95.8144 913.902 98.907 910.839 101.544C907.783 104.179 904.056 105.498 899.674 105.498ZM887.335 202.325V116.752H911.83V202.325H887.335Z" fill="white"/>
<path d="M987.484 204.86C976.472 204.86 966.77 202.959 958.425 199.131C950.049 195.329 943.625 190.006 939.121 183.162C934.624 176.318 932.338 168.537 932.338 159.792C932.338 151.047 934.594 143.215 939.121 136.244C943.625 129.299 950.049 123.849 958.333 119.946C966.625 116.017 976.35 114.065 987.515 114.065C993.101 114.065 998.26 114.572 1003.04 115.586C1007.81 116.6 1012.16 117.994 1016.09 119.794C1020 121.593 1023.9 123.773 1027.75 126.359L1015.41 142.327C1011.57 139.413 1007.45 137.157 1003.07 135.509C998.687 133.886 993.703 133.076 988.147 133.076C981.509 133.076 975.87 134.242 971.213 136.599C966.564 138.956 963.142 142.125 960.947 146.104C958.76 150.084 957.678 154.596 957.678 159.64C957.678 164.583 958.814 169.019 961.069 172.998C963.318 176.978 966.739 180.121 971.335 182.402C975.93 184.708 981.509 185.85 988.178 185.85C993.49 185.85 998.321 185.089 1002.7 183.568C1007.09 182.047 1011.32 179.791 1015.47 176.749L1027.62 192.389C1024.17 194.974 1020.51 197.154 1016.67 198.954C1012.82 200.754 1008.44 202.173 1003.52 203.238C998.504 204.328 993.192 204.86 987.484 204.86Z" fill="white"/>
<path d="M1056.81 105.498C1052.42 105.498 1048.7 104.179 1045.67 101.544C1042.61 98.907 1041.08 95.7893 1041.08 92.2151C1041.08 88.5147 1042.61 85.3462 1045.67 82.7104C1048.73 80.0738 1052.45 78.7556 1056.81 78.7556C1061.19 78.7556 1064.91 80.0738 1067.94 82.7104C1071 85.3462 1072.54 88.5147 1072.54 92.2151C1072.54 95.8144 1071 98.907 1067.94 101.544C1064.88 104.179 1061.19 105.498 1056.81 105.498Z" fill="url(#paint0_linear_4_46)"/>
<path d="M1068.93 116.752H1044.44V202.325H1068.93V116.752Z" fill="white"/>
<path d="M1133.45 204.353C1122.43 204.353 1114.54 202.224 1109.76 197.965C1104.99 193.707 1102.59 187.598 1102.59 179.639V133.557H1087.07V116.752H1102.59V94.3951H1127.29V116.752H1148.19V133.557H1127.29V178.447C1127.29 181.363 1128.31 183.492 1130.39 184.835C1132.43 186.179 1135.46 186.863 1139.45 186.863C1141.43 186.863 1144.29 186.635 1148.01 186.179V202.655C1142.96 203.795 1138.1 204.353 1133.45 204.353Z" fill="white"/>
<path d="M1207.92 236.975C1200.63 236.975 1193.43 236.113 1186.31 234.365C1179.2 232.616 1172.59 230.182 1166.5 227.039L1176.65 210.233C1181.57 212.692 1186.65 214.669 1191.87 216.114C1197.12 217.559 1202.25 218.294 1207.3 218.294C1213.27 218.294 1218.2 217.458 1222.04 215.785C1225.88 214.112 1228.67 211.678 1230.41 208.561C1232.12 205.417 1233 201.438 1233 196.622V189.398C1229.55 193.326 1225.25 196.343 1220.15 198.472C1215.04 200.602 1209.28 201.666 1202.92 201.666C1191.36 201.666 1182.38 198.472 1175.92 192.085C1169.47 185.697 1166.26 177.003 1166.26 166.027V116.752H1190.55V164.507C1190.55 170.894 1192.19 175.736 1195.53 179.056C1198.83 182.351 1203.82 184.024 1210.48 184.024C1214.98 184.024 1218.91 183.086 1222.21 181.16C1225.52 179.259 1228.16 176.546 1230.08 172.998C1232.01 169.475 1232.97 165.394 1232.97 160.806V116.752H1258.45V197.458C1258.45 205.873 1256.41 213.022 1252.39 218.902C1248.33 224.783 1242.54 229.269 1234.98 232.362C1227.44 235.429 1218.43 236.975 1207.92 236.975Z" fill="white"/>
<path d="M330.292 43.295C261.636 -14.0667 149.869 -14.0667 81.2124 43.6241C29.0369 86.8925 16.0979 150.16 42.0355 203.618L0.0371704 238.674C68.694 296.035 180.46 296.035 249.087 238.344C300.872 195.076 313.811 131.808 287.903 78.3505L330.292 43.295Z" fill="url(#paint1_linear_4_46)"/>
<path d="M162.235 242.704C223.465 242.704 273.101 197.264 273.101 141.213C273.101 85.1601 223.465 39.7208 162.235 39.7208C101.005 39.7208 51.369 85.1601 51.369 141.213C51.369 197.264 101.005 242.704 162.235 242.704Z" fill="url(#paint2_radial_4_46)"/>
<path fill-rule="evenodd" clip-rule="evenodd" d="M207.027 170.767L165.149 202.503L123.301 170.767C80.7011 138.703 108.05 79.6681 165.149 79.6681C222.278 79.6681 249.597 138.728 207.027 170.767ZM186.614 131.479C186.614 141.288 177.037 149.222 165.179 149.222C153.321 149.222 143.744 141.288 143.744 131.479C143.744 121.669 153.321 113.735 165.179 113.735C177.037 113.735 186.614 121.669 186.614 131.479Z" fill="white"/>
</g>
<defs>
<linearGradient id="paint0_linear_4_46" x1="1041.06" y1="92.1185" x2="1072.53" y2="92.1185" gradientUnits="userSpaceOnUse">
<stop stop-color="#FFBD1B"/>
<stop offset="0.2604" stop-color="#F5B410"/>
<stop offset="0.9383" stop-color="#ED9430"/>
</linearGradient>
<linearGradient id="paint1_linear_4_46" x1="79.5739" y1="10.1767" x2="201.753" y2="272.119" gradientUnits="userSpaceOnUse">
<stop stop-color="#FFBD1B"/>
<stop offset="0.2604" stop-color="#F5B410"/>
<stop offset="0.9383" stop-color="#ED9430"/>
</linearGradient>
<radialGradient id="paint2_radial_4_46" cx="0" cy="0" r="1" gradientUnits="userSpaceOnUse" gradientTransform="translate(170.932 150.474) rotate(65.1622) scale(85.6952 90.935)">
<stop offset="0.3125" stop-color="#F3AC1E"/>
<stop offset="0.4635" stop-color="#E68B1E"/>
<stop offset="0.7917" stop-color="#F4AB20" stop-opacity="0"/>
</radialGradient>
<clipPath id="clip0_4_46">
<rect width="1259" height="282" fill="white"/>
</clipPath>
</defs>
</svg>
